

PLOT

A 16-year-old who was raised by her father to be the perfect assassin is dispatched on a mission
across Europe, tracked by a ruthless intelligence agent and her operatives.
 
http://www.imdb.com/title/tt0993842/ 


Encoded By .......: BigPerm1828
Runtime ..........: 1h 51mn
File Size ........: 700 MB
Resolution .......: 704 x 400
IMDb URL .........: http://www.imdb.com/title/tt0993842/
Genre ............: Action | Crime | Mystery
Language .........: English
Video
ID : 1
Format : AVC
Format/Info : Advanced Video Codec
Format profile : Main@L3.0
Format settings, CABAC : Yes
Format settings, ReFrames : 4 frames
Format settings, GOP : M=3, N=32
Codec ID : avc1
Codec ID/Info : Advanced Video Coding
Duration : 1h 51mn
Bit rate mode : Variable
Bit rate : 716 Kbps
Width : 704 pixels
Height : 400 pixels
Display aspect ratio : 2.35:1
Frame rate mode : Variable
Frame rate : 23.976 fps
Minimum frame rate : 23.256 fps
Maximum frame rate : 25.000 fps
Color space : YUV
Chroma subsampling : 4:2:0
Bit depth : 8 bits
Scan type : Progressive
Bits/(Pixel*Frame) : 0.106
Stream size : 569 MiB (81%)
Writing library : x264 core 112
Audio
ID : 2
Format : AAC
Format/Info : Advanced Audio Codec
Format version : Version 4
Format profile : LC
Codec ID : 40
Duration : 1h 51mn
Bit rate mode : Variable
Bit rate : 160 Kbps
Maximum bit rate : 362 Kbps
Channel(s) : 2 channels
Channel positions : Front: L R
Sampling rate : 48.0 KHz
Compression mode : Lossy
Stream size : 127 MiB (18%)
Language : English
 
http://www.shotpix.com/images/07051071836064292024.png
 
http://www.shotpix.com/images/87060105321291142876.png
 
http://www.shotpix.com/images/50093869750038643412.png
 
http://www.shotpix.com/images/13832100082230198001.png
